<svg width="50" height="33" viewBox="0 0 50 33" fill="none" xmlns="http://www.w3.org/2000/svg">
<g id="&#235;&#176;&#169;&#234;&#181;&#172;&#236;&#132;&#157; &#234;&#184;&#128;&#236;&#147;&#176;&#234;&#184;&#176; : &#235;&#176;&#169;&#234;&#184;&#128;">
<path d="M2.2002 6.54981L10.3779 6.52178C10.6076 6.52099 10.8063 6.57477 10.9737 6.68313C11.1411 6.76971 11.2252 6.92194 11.226 7.13981C11.2269 7.40126 11.1545 7.61937 11.0089 7.79417C10.8841 7.9689 10.6755 8.05676 10.3831 8.05777L2.20546 8.0858L2.21902 12.0402C2.22051 12.4759 2.28414 12.7589 2.40992 12.8892C2.53562 12.9977 2.83868 13.0511 3.31911 13.0495L11.4341 13.0217C11.8936 13.0201 12.1754 12.9647 12.2795 12.8554C12.4045 12.746 12.4661 12.4408 12.4644 11.9397L12.4311 2.23353C12.4303 2.01566 12.5132 1.80839 12.6796 1.61173C12.8669 1.39322 13.1067 1.28345 13.3991 1.28245C13.5871 1.28181 13.7546 1.37928 13.9015 1.57486C14.0692 1.74859 14.1534 1.94438 14.1541 2.16225L14.1898 12.5547C14.1926 13.3826 14.0274 13.9279 13.694 14.1905C13.3607 14.4313 12.7971 14.553 12.0033 14.5557L2.63507 14.5879C1.92488 14.5903 1.39186 14.4832 1.03602 14.2665C0.680097 14.0281 0.500713 13.4949 0.497876 12.667L0.462478 2.33991C0.461732 2.12204 0.544576 1.91477 0.711008 1.71812C0.877366 1.49967 1.09631 1.38999 1.36786 1.38906C1.59763 1.38827 1.78593 1.47477 1.93274 1.64857C2.10044 1.82229 2.1847 2.02899 2.18553 2.26865L2.2002 6.54981ZM23.1049 8.3083C23.5436 8.30679 23.7638 8.56748 23.7656 9.09037C23.7673 9.59147 23.5488 9.84278 23.1102 9.84428L19.8517 9.85545L19.8718 15.738C19.8724 15.9123 19.7896 16.1195 19.6233 16.3598C19.4569 16.5782 19.2589 16.6878 19.0291 16.6886C18.8202 16.6893 18.6215 16.592 18.4328 16.3965C18.265 16.1792 18.1807 15.9616 18.1799 15.7438L18.1323 1.85448C18.1302 1.24445 18.4111 0.938463 18.9751 0.93653C19.2049 0.935743 19.4036 1.01132 19.5712 1.16325C19.7388 1.2934 19.8231 1.52188 19.8242 1.84869L19.8464 8.31946L23.1049 8.3083ZM10.9784 17.1737C11.417 17.1722 11.9497 17.1922 12.5765 17.2336C13.2032 17.2533 13.8614 17.3164 14.5511 17.4229C15.2408 17.5295 15.9306 17.6797 16.6206 17.8734C17.3106 18.0671 17.9277 18.3373 18.472 18.6841C19.0162 19.009 19.4563 19.4215 19.7922 19.9214C20.149 20.4213 20.3286 21.0198 20.331 21.717C20.3333 22.3924 20.1682 22.9812 19.8357 23.4835C19.524 23.9639 19.0973 24.3793 18.5554 24.7298C18.0344 25.0802 17.44 25.3654 16.7723 25.5856C16.1047 25.8057 15.416 25.9824 14.7062 26.1156C14.0174 26.2487 13.3493 26.3381 12.7019 26.3839C12.0545 26.4297 11.4906 26.4534 11.0102 26.455C10.5715 26.4565 10.0284 26.4366 9.38068 26.3953C8.75396 26.3756 8.08529 26.3017 7.37465 26.1734C6.68497 26.0668 5.9951 25.9058 5.30505 25.6903C4.61508 25.4965 3.9875 25.2263 3.42233 24.8797C2.87804 24.5329 2.4275 24.1096 2.07068 23.6098C1.73476 23.1098 1.56556 22.5003 1.56309 21.7814C1.55959 20.7574 1.90143 19.9392 2.58864 19.3268C3.29674 18.7143 4.14114 18.2539 5.12183 17.9455C6.12334 17.6152 7.15659 17.4047 8.22158 17.3139C9.30746 17.223 10.2264 17.1763 10.9784 17.1737ZM10.9835 18.6771C10.712 18.678 10.3256 18.6902 9.82433 18.7137C9.34391 18.7153 8.81138 18.7499 8.22674 18.8172C7.66291 18.8627 7.07835 18.9519 6.47305 19.0847C5.88863 19.2174 5.34617 19.4045 4.84568 19.6458C4.36601 19.8654 3.9701 20.15 3.65798 20.4996C3.36674 20.8492 3.22198 21.2746 3.2237 21.7757C3.22624 22.5164 3.53109 23.0927 4.13826 23.5046C4.74543 23.9165 5.46714 24.2299 6.30341 24.445C7.1396 24.6382 7.99642 24.7551 8.87387 24.7956C9.75139 24.858 10.4617 24.8882 11.0048 24.8864C11.4434 24.8849 12.0805 24.8609 12.9158 24.8145C13.7721 24.768 14.6281 24.6452 15.4838 24.4462C16.3396 24.2472 17.08 23.9396 17.7053 23.5235C18.3513 23.0855 18.673 22.4853 18.6704 21.7227C18.6687 21.2434 18.5212 20.8408 18.2276 20.515C17.9549 20.1674 17.5988 19.8854 17.1594 19.669C16.7199 19.4308 16.218 19.2474 15.6536 19.1186C15.0891 18.9898 14.5144 18.8937 13.9293 18.8304C13.3651 18.7669 12.8218 18.7252 12.2996 18.7052C11.7773 18.6852 11.3386 18.6758 10.9835 18.6771Z" fill="#FDFCFC"/>
<path d="M44.8105 16.2135C45.2045 15.3842 45.5045 14.5444 45.7105 13.694C45.9164 12.8436 46.0186 12.1678 46.0168 11.6667L46.0138 10.7843C46.0124 10.3704 45.9175 10.1093 45.7292 10.001C45.5408 9.89267 45.2481 9.83921 44.8513 9.84057L28.5273 9.89652C28.0469 9.89816 27.8056 9.59397 27.8035 8.98393C27.8021 8.56998 28.0416 8.36218 28.522 8.36053L45.2533 8.30318C45.6293 8.30189 45.9636 8.32253 46.2562 8.3651C46.5696 8.38581 46.8309 8.46117 47.0403 8.59118C47.2496 8.72119 47.4069 8.91673 47.5123 9.17782C47.6385 9.43883 47.7024 9.79811 47.704 10.2556L47.7081 11.4648C47.7102 12.0749 47.5875 12.8378 47.34 13.7538C47.1133 14.6478 46.7927 15.5858 46.3783 16.5676C46.3164 16.7857 46.1813 16.9823 45.973 17.1573C45.7856 17.3322 45.577 17.4201 45.3472 17.4209C45.1173 17.3781 44.9393 17.248 44.8133 17.0305C44.6871 16.7913 44.6862 16.519 44.8105 16.2135ZM48.6408 18.4881C48.8915 18.4872 49.1006 18.5518 49.2681 18.682C49.4357 18.8121 49.5199 18.997 49.5207 19.2367C49.5214 19.4546 49.4385 19.6509 49.272 19.8258C49.1264 20.0006 48.9387 20.0884 48.709 20.0892L27.2779 20.1627C27.0272 20.1635 26.8285 20.077 26.6816 19.9032C26.5557 19.7294 26.4924 19.5335 26.4916 19.3156C26.4909 19.0978 26.5634 18.9232 26.7092 18.792C26.8757 18.6389 27.0844 18.5619 27.335 18.5611L48.6408 18.4881ZM45.9294 22.7132C46.2427 22.7121 46.5247 22.722 46.7754 22.743C47.0262 22.7639 47.2249 22.8286 47.3714 22.937C47.5388 23.0236 47.6647 23.1757 47.749 23.3933C47.8332 23.5891 47.876 23.883 47.8773 24.2752L47.887 27.0857C47.8891 27.6958 47.786 28.1101 47.5779 28.3287C47.3697 28.5255 46.9418 28.625 46.2943 28.6272L30.7223 28.6806C30.4507 28.6815 30.2733 28.7039 30.1899 28.7478C30.1064 28.7699 30.0652 28.9552 30.0664 29.3038L30.0717 30.8398C30.0725 31.0576 30.1146 31.1773 30.1983 31.1988C30.2819 31.2203 30.4386 31.2307 30.6684 31.2299L47.8383 31.171C48.0681 31.1703 48.2668 31.2458 48.4344 31.3978C48.6229 31.5496 48.7281 31.7671 48.75 32.0503C48.7505 32.2028 48.6675 32.3665 48.501 32.5414C48.3554 32.738 48.1574 32.8367 47.9067 32.8375L29.8281 32.8995C29.2224 32.9016 28.8147 32.794 28.605 32.5769C28.3955 32.3815 28.2895 31.9352 28.2871 31.2381L28.2777 28.4929C28.2756 27.8611 28.3995 27.4685 28.6497 27.3151C28.9207 27.1617 29.3904 27.0838 30.0588 27.0815L45.4428 27.0288C45.6726 27.028 45.8607 27.0382 46.0069 27.0595C46.1532 27.059 46.2257 26.8845 46.2245 26.5359L46.219 24.9345C46.2177 24.5641 46.1648 24.3682 46.0603 24.3468C45.9557 24.3036 45.7259 24.2826 45.3708 24.2838L29.0781 24.3397C28.7648 24.3407 28.5243 24.2653 28.3567 24.1134C28.2099 23.9396 28.1361 23.7437 28.1354 23.5258C28.1336 23.0247 28.4461 22.7731 29.0727 22.771L45.9294 22.7132Z" fill="#FDFCFC"/>
</g>
</svg>
